<?xml version="1.0" encoding="UTF-8"?>
<!-- Generator: https://ezgif.com/png-to-svg -->
<svg version="1.1" xmlns="http://www.w3.org/2000/svg" width="1069" height="937">
<path d="M0,0 L2,1 L6,11 L8,29 L6,39 L2,47 L-7,57 L-15,63 L-27,68 L-31,69 L-48,69 L-110,62 L-110,71 L-117,151 L-120,216 L-120,304 L-117,349 L-113,388 L-109,418 L-109,423 L-117,426 L-131,429 L-138,430 L-158,430 L-170,427 L-182,421 L-192,412 L-198,402 L-201,391 L-201,359 L-197,307 L-193,260 L-191,220 L-190,163 L-191,123 L-193,89 L-195,69 L-195,60 L-198,61 L-242,65 L-266,69 L-287,74 L-295,79 L-307,83 L-323,83 L-386,76 L-386,85 L-393,165 L-396,228 L-396,318 L-393,364 L-388,410 L-385,432 L-385,437 L-393,440 L-407,443 L-414,444 L-433,444 L-446,441 L-458,435 L-468,426 L-474,416 L-477,405 L-477,373 L-473,322 L-469,275 L-467,235 L-466,192 L-466,174 L-467,137 L-470,92 L-471,83 L-471,74 L-475,75 L-509,78 L-538,82 L-564,88 L-582,94 L-585,94 L-589,84 L-591,75 L-591,57 L-587,46 L-579,35 L-572,28 L-560,22 L-552,20 L-357,20 L-314,18 L-301,17 L-292,12 L-284,8 L-277,6 L-82,6 L-38,4 L-7,1 Z " fill="#CECECE" transform="translate(835,259)"/>
<path d="M0,0 L36,0 L66,2 L100,7 L123,12 L153,20 L182,30 L208,41 L227,50 L250,63 L268,74 L288,88 L301,98 L312,107 L327,120 L336,129 L344,136 L355,148 L366,160 L375,171 L389,189 L405,213 L417,233 L429,256 L440,279 L453,314 L461,341 L468,371 L474,411 L476,444 L476,472 L474,505 L468,545 L460,579 L451,608 L441,634 L432,654 L420,678 L407,700 L395,718 L382,736 L368,753 L356,767 L324,799 L313,808 L300,819 L281,833 L263,845 L248,854 L230,864 L206,876 L179,887 L146,898 L110,907 L73,913 L53,915 L33,916 L3,916 L-29,914 L-69,908 L-99,901 L-123,894 L-151,884 L-174,874 L-190,866 L-211,855 L-232,842 L-252,828 L-265,818 L-276,809 L-290,797 L-299,788 L-307,781 L-321,766 L-331,755 L-342,741 L-355,724 L-371,700 L-385,676 L-396,655 L-408,627 L-418,599 L-426,572 L-432,546 L-438,506 L-440,476 L-440,439 L-438,410 L-432,370 L-425,341 L-418,317 L-408,289 L-399,268 L-388,245 L-375,222 L-355,192 L-342,175 L-333,164 L-321,150 L-305,133 L-298,126 L-290,119 L-279,109 L-265,98 L-247,84 L-224,69 L-209,60 L-185,47 L-161,36 L-132,25 L-107,17 L-75,9 L-38,3 L-18,1 Z M8,27 L-15,28 L-44,31 L-72,36 L-100,43 L-125,51 L-154,62 L-185,77 L-203,87 L-220,98 L-237,110 L-249,119 L-263,131 L-271,138 L-283,149 L-288,153 L-295,161 L-308,175 L-317,186 L-328,200 L-338,214 L-349,231 L-358,246 L-372,273 L-381,293 L-391,320 L-400,351 L-406,378 L-410,404 L-412,425 L-413,448 L-413,468 L-412,491 L-409,520 L-404,548 L-397,576 L-389,601 L-379,627 L-365,657 L-352,680 L-338,702 L-325,720 L-314,733 L-306,743 L-291,759 L-276,774 L-268,781 L-254,793 L-237,806 L-220,818 L-199,831 L-173,845 L-146,857 L-123,866 L-92,875 L-68,881 L-36,886 L-15,888 L8,889 L28,889 L51,888 L80,885 L108,880 L139,872 L164,864 L191,853 L215,842 L238,829 L262,814 L278,802 L287,795 L303,782 L310,775 L318,768 L334,752 L341,744 L349,735 L360,721 L373,703 L384,686 L393,671 L406,647 L417,622 L426,599 L435,568 L441,543 L445,519 L448,491 L449,454 L448,425 L444,391 L439,364 L432,337 L424,312 L414,287 L402,261 L390,239 L378,220 L368,206 L359,194 L350,183 L339,170 L325,155 L310,140 L302,133 L289,122 L276,112 L256,98 L235,85 L207,70 L180,58 L156,49 L125,40 L98,34 L72,30 L51,28 L28,27 Z " fill="#FFFFFF" transform="translate(533,17)"/>
<path d="M0,0 L2,1 L6,11 L8,29 L6,39 L2,47 L-7,57 L-15,63 L-27,68 L-31,69 L-48,69 L-110,62 L-110,71 L-117,151 L-120,216 L-120,304 L-117,349 L-113,388 L-109,418 L-109,423 L-117,426 L-131,429 L-138,430 L-158,430 L-170,427 L-182,421 L-192,412 L-198,402 L-201,391 L-201,359 L-197,307 L-193,260 L-191,220 L-190,163 L-191,123 L-193,89 L-195,69 L-195,60 L-198,61 L-242,65 L-266,69 L-282,72 L-276,64 L-271,55 L-269,50 L-269,30 L-272,20 L-274,15 L-286,16 L-297,16 L-294,13 L-284,8 L-277,6 L-82,6 L-38,4 L-7,1 Z " fill="#FEFEFE" transform="translate(835,259)"/>
</svg>
